<mxfile host="Electron" modified="2024-05-12T18:14:15.071Z" agent="Mozilla/5.0 (X11; Linux x86_64) AppleWebKit/537.36 (KHTML, like Gecko) draw.io/24.2.5 Chrome/120.0.6099.109 Electron/28.1.0 Safari/537.36" etag="gxevtFo1X3Ny2GU4y7BT" version="24.2.5" type="device" pages="2">
  <diagram name="IT-cycle" id="9Rp0s_cZFTEAjZsGl9QW">
    <mxGraphModel dx="1114" dy="1027" grid="1" gridSize="10" guides="0" tooltips="1" connect="0" arrows="0" fold="1" page="1" pageScale="1" pageWidth="1654" pageHeight="1169" math="0" shadow="0">
      <root>
        <mxCell id="0" />
        <mxCell id="1" parent="0" />
        <mxCell id="Hv_uYBrX842Ujxgdl6rj-1" value="Бизнес-заказчик" style="shape=umlActor;verticalLabelPosition=bottom;verticalAlign=top;html=1;outlineConnect=0;comic=1;" parent="1" vertex="1">
          <mxGeometry x="390" y="177" width="30" height="60" as="geometry" />
        </mxCell>
        <mxCell id="Hv_uYBrX842Ujxgdl6rj-2" value="Описание инициативы (новые вводные от бизнеса)" style="shape=note;whiteSpace=wrap;html=1;backgroundOutline=1;darkOpacity=0.05;comic=1;fillColor=#cce5ff;strokeColor=#36393d;" parent="1" vertex="1">
          <mxGeometry x="530" y="180" width="80" height="100" as="geometry" />
        </mxCell>
        <mxCell id="Hv_uYBrX842Ujxgdl6rj-3" style="edgeStyle=orthogonalEdgeStyle;rounded=1;orthogonalLoop=1;jettySize=auto;html=1;entryX=-0.025;entryY=0.35;entryDx=0;entryDy=0;entryPerimeter=0;curved=0;perimeterSpacing=5;enumerate=0;comic=1;" parent="1" source="Hv_uYBrX842Ujxgdl6rj-1" target="Hv_uYBrX842Ujxgdl6rj-2" edge="1">
          <mxGeometry relative="1" as="geometry">
            <mxPoint x="430" y="230" as="sourcePoint" />
            <Array as="points">
              <mxPoint x="450" y="215" />
              <mxPoint x="450" y="215" />
            </Array>
          </mxGeometry>
        </mxCell>
        <mxCell id="Hv_uYBrX842Ujxgdl6rj-4" value="Бизнес-анализ инициативы" style="shape=process;whiteSpace=wrap;html=1;backgroundOutline=1;comic=1;enumerate=1;enumerateValue=1;" parent="1" vertex="1">
          <mxGeometry x="690" y="260" width="130" height="90" as="geometry" />
        </mxCell>
        <mxCell id="Hv_uYBrX842Ujxgdl6rj-5" value="Бизнес-анатитик" style="shape=umlActor;verticalLabelPosition=bottom;verticalAlign=top;html=1;outlineConnect=0;comic=1;" parent="1" vertex="1">
          <mxGeometry x="740" y="170" width="30" height="60" as="geometry" />
        </mxCell>
        <mxCell id="Hv_uYBrX842Ujxgdl6rj-6" value="&lt;div&gt;Бизнес, функц.&lt;/div&gt;&lt;div&gt;т&lt;span style=&quot;background-color: initial;&quot;&gt;ребования&lt;/span&gt;&lt;/div&gt;" style="shape=note;whiteSpace=wrap;html=1;backgroundOutline=1;darkOpacity=0.05;comic=1;fillColor=#cce5ff;strokeColor=#36393d;" parent="1" vertex="1">
          <mxGeometry x="890" y="180" width="80" height="100" as="geometry" />
        </mxCell>
        <mxCell id="Hv_uYBrX842Ujxgdl6rj-7" style="edgeStyle=orthogonalEdgeStyle;rounded=1;orthogonalLoop=1;jettySize=auto;html=1;curved=0;perimeterSpacing=5;enumerate=0;comic=1;" parent="1" target="Hv_uYBrX842Ujxgdl6rj-4" edge="1">
          <mxGeometry relative="1" as="geometry">
            <mxPoint x="610" y="225" as="sourcePoint" />
            <mxPoint x="693" y="200" as="targetPoint" />
            <Array as="points">
              <mxPoint x="660" y="225" />
              <mxPoint x="660" y="305" />
            </Array>
          </mxGeometry>
        </mxCell>
        <mxCell id="Hv_uYBrX842Ujxgdl6rj-8" style="edgeStyle=orthogonalEdgeStyle;rounded=1;orthogonalLoop=1;jettySize=auto;html=1;curved=0;perimeterSpacing=5;enumerate=0;comic=1;entryX=-0.037;entryY=0.42;entryDx=0;entryDy=0;entryPerimeter=0;orthogonal=1;" parent="1" source="Hv_uYBrX842Ujxgdl6rj-4" target="Hv_uYBrX842Ujxgdl6rj-6" edge="1">
          <mxGeometry relative="1" as="geometry">
            <mxPoint x="870" y="340" as="sourcePoint" />
            <mxPoint x="945" y="420" as="targetPoint" />
          </mxGeometry>
        </mxCell>
        <mxCell id="Hv_uYBrX842Ujxgdl6rj-9" value="Проработка архитектуры решения" style="shape=process;whiteSpace=wrap;html=1;backgroundOutline=1;comic=1;enumerate=1;enumerateValue=2;" parent="1" vertex="1">
          <mxGeometry x="1020" y="260" width="130" height="90" as="geometry" />
        </mxCell>
        <mxCell id="Hv_uYBrX842Ujxgdl6rj-10" value="Архитектор" style="shape=umlActor;verticalLabelPosition=bottom;verticalAlign=top;html=1;outlineConnect=0;comic=1;" parent="1" vertex="1">
          <mxGeometry x="1070" y="170" width="30" height="60" as="geometry" />
        </mxCell>
        <mxCell id="Hv_uYBrX842Ujxgdl6rj-11" value="Работа в ИТ-системах" style="shape=process;whiteSpace=wrap;html=1;backgroundOutline=1;comic=1;enumerate=1;enumerateValue=0;" parent="1" vertex="1">
          <mxGeometry x="330" y="260" width="130" height="90" as="geometry" />
        </mxCell>
        <mxCell id="Hv_uYBrX842Ujxgdl6rj-12" style="edgeStyle=orthogonalEdgeStyle;rounded=1;orthogonalLoop=1;jettySize=auto;html=1;curved=0;perimeterSpacing=5;enumerate=0;comic=1;entryX=0.015;entryY=0.478;entryDx=0;entryDy=0;entryPerimeter=0;orthogonal=1;" parent="1" source="Hv_uYBrX842Ujxgdl6rj-6" target="Hv_uYBrX842Ujxgdl6rj-9" edge="1">
          <mxGeometry relative="1" as="geometry">
            <mxPoint x="960" y="283" as="sourcePoint" />
            <mxPoint x="1022" y="200" as="targetPoint" />
          </mxGeometry>
        </mxCell>
        <mxCell id="Hv_uYBrX842Ujxgdl6rj-13" value="&lt;div&gt;Архитектура ПА-L1 TO-BE&amp;nbsp;&lt;/div&gt;" style="shape=note;whiteSpace=wrap;html=1;backgroundOutline=1;darkOpacity=0.05;comic=1;fillColor=#cce5ff;strokeColor=#36393d;" parent="1" vertex="1">
          <mxGeometry x="1190" y="360" width="80" height="100" as="geometry" />
        </mxCell>
        <mxCell id="Hv_uYBrX842Ujxgdl6rj-14" style="edgeStyle=orthogonalEdgeStyle;rounded=1;orthogonalLoop=1;jettySize=auto;html=1;curved=0;perimeterSpacing=5;enumerate=0;comic=1;orthogonal=1;" parent="1" source="Hv_uYBrX842Ujxgdl6rj-9" target="Hv_uYBrX842Ujxgdl6rj-13" edge="1">
          <mxGeometry relative="1" as="geometry">
            <mxPoint x="1180" y="300" as="sourcePoint" />
            <mxPoint x="1227" y="373" as="targetPoint" />
          </mxGeometry>
        </mxCell>
        <mxCell id="Hv_uYBrX842Ujxgdl6rj-15" value="Разработка нового функционала в ИТ-системах и интеграциях" style="shape=process;whiteSpace=wrap;html=1;backgroundOutline=1;comic=1;enumerate=1;enumerateValue=3;" parent="1" vertex="1">
          <mxGeometry x="910" y="494" width="180" height="90" as="geometry" />
        </mxCell>
        <mxCell id="Hv_uYBrX842Ujxgdl6rj-16" value="Команды ИТ-продуктов" style="shape=umlActor;verticalLabelPosition=bottom;verticalAlign=top;html=1;outlineConnect=0;comic=1;" parent="1" vertex="1">
          <mxGeometry x="977" y="404" width="30" height="60" as="geometry" />
        </mxCell>
        <mxCell id="Hv_uYBrX842Ujxgdl6rj-17" value="" style="shape=umlActor;verticalLabelPosition=bottom;verticalAlign=top;html=1;outlineConnect=0;comic=1;" parent="1" vertex="1">
          <mxGeometry x="997" y="414" width="30" height="60" as="geometry" />
        </mxCell>
        <mxCell id="Hv_uYBrX842Ujxgdl6rj-18" style="edgeStyle=orthogonalEdgeStyle;rounded=1;orthogonalLoop=1;jettySize=auto;html=1;curved=0;perimeterSpacing=5;enumerate=0;comic=1;orthogonal=1;" parent="1" source="Hv_uYBrX842Ujxgdl6rj-13" target="Hv_uYBrX842Ujxgdl6rj-15" edge="1">
          <mxGeometry relative="1" as="geometry">
            <mxPoint x="1160" y="534" as="sourcePoint" />
            <mxPoint x="1225" y="594" as="targetPoint" />
            <Array as="points">
              <mxPoint x="1220" y="540" />
              <mxPoint x="1135" y="540" />
              <mxPoint x="1135" y="539" />
            </Array>
          </mxGeometry>
        </mxCell>
        <mxCell id="Hv_uYBrX842Ujxgdl6rj-19" value="Приемка нового функционала" style="shape=process;whiteSpace=wrap;html=1;backgroundOutline=1;comic=1;enumerate=1;enumerateValue=4;" parent="1" vertex="1">
          <mxGeometry x="440" y="494" width="220" height="90" as="geometry" />
        </mxCell>
        <mxCell id="Hv_uYBrX842Ujxgdl6rj-20" value="" style="shape=note;whiteSpace=wrap;html=1;backgroundOutline=1;darkOpacity=0.05;comic=1;fillColor=#cce5ff;strokeColor=#36393d;" parent="1" vertex="1">
          <mxGeometry x="760" y="394" width="80" height="100" as="geometry" />
        </mxCell>
        <mxCell id="Hv_uYBrX842Ujxgdl6rj-21" value="&lt;div&gt;доработанные ИТ-системы и интеграции&lt;/div&gt;" style="shape=note;whiteSpace=wrap;html=1;backgroundOutline=1;darkOpacity=0.05;comic=1;fillColor=#cce5ff;strokeColor=#36393d;" parent="1" vertex="1">
          <mxGeometry x="740" y="404" width="80" height="100" as="geometry" />
        </mxCell>
        <mxCell id="Hv_uYBrX842Ujxgdl6rj-22" style="edgeStyle=orthogonalEdgeStyle;rounded=1;orthogonalLoop=1;jettySize=auto;html=1;curved=0;perimeterSpacing=5;enumerate=0;comic=1;orthogonal=1;exitX=-0.01;exitY=0.444;exitDx=0;exitDy=0;exitPerimeter=0;entryX=1.013;entryY=0.55;entryDx=0;entryDy=0;entryPerimeter=0;" parent="1" source="Hv_uYBrX842Ujxgdl6rj-15" target="Hv_uYBrX842Ujxgdl6rj-20" edge="1">
          <mxGeometry relative="1" as="geometry">
            <mxPoint x="850" y="544" as="sourcePoint" />
            <mxPoint x="770" y="639" as="targetPoint" />
          </mxGeometry>
        </mxCell>
        <mxCell id="Hv_uYBrX842Ujxgdl6rj-23" value="Бизнес-&lt;div&gt;заказчик&lt;/div&gt;" style="shape=umlActor;verticalLabelPosition=bottom;verticalAlign=top;html=1;outlineConnect=0;comic=1;" parent="1" vertex="1">
          <mxGeometry x="459" y="394" width="30" height="60" as="geometry" />
        </mxCell>
        <mxCell id="Hv_uYBrX842Ujxgdl6rj-24" value="Команды&amp;nbsp;&lt;div&gt;ИТ-продуктов&lt;/div&gt;" style="shape=umlActor;verticalLabelPosition=bottom;verticalAlign=top;html=1;outlineConnect=0;comic=1;" parent="1" vertex="1">
          <mxGeometry x="526" y="395" width="30" height="60" as="geometry" />
        </mxCell>
        <mxCell id="Hv_uYBrX842Ujxgdl6rj-25" value="Архитектор" style="shape=umlActor;verticalLabelPosition=bottom;verticalAlign=top;html=1;outlineConnect=0;comic=1;" parent="1" vertex="1">
          <mxGeometry x="594" y="399" width="30" height="60" as="geometry" />
        </mxCell>
        <mxCell id="Hv_uYBrX842Ujxgdl6rj-26" value="Новый функционал в ПРОМе" style="shape=note;whiteSpace=wrap;html=1;backgroundOutline=1;darkOpacity=0.05;comic=1;fillColor=#cce5ff;strokeColor=#36393d;" parent="1" vertex="1">
          <mxGeometry x="250" y="380" width="80" height="100" as="geometry" />
        </mxCell>
        <mxCell id="Hv_uYBrX842Ujxgdl6rj-27" style="edgeStyle=orthogonalEdgeStyle;rounded=1;orthogonalLoop=1;jettySize=auto;html=1;curved=0;perimeterSpacing=5;enumerate=0;comic=1;orthogonal=1;" parent="1" source="Hv_uYBrX842Ujxgdl6rj-21" target="Hv_uYBrX842Ujxgdl6rj-19" edge="1">
          <mxGeometry relative="1" as="geometry">
            <mxPoint x="766.96" y="585" as="sourcePoint" />
            <mxPoint x="719.96" y="500" as="targetPoint" />
          </mxGeometry>
        </mxCell>
        <mxCell id="Hv_uYBrX842Ujxgdl6rj-28" style="edgeStyle=orthogonalEdgeStyle;rounded=1;orthogonalLoop=1;jettySize=auto;html=1;curved=0;perimeterSpacing=5;enumerate=0;comic=1;orthogonal=1;entryX=0.563;entryY=0.99;entryDx=0;entryDy=0;entryPerimeter=0;" parent="1" source="Hv_uYBrX842Ujxgdl6rj-19" target="Hv_uYBrX842Ujxgdl6rj-26" edge="1">
          <mxGeometry relative="1" as="geometry">
            <mxPoint x="410" y="480" as="sourcePoint" />
            <mxPoint x="340" y="565" as="targetPoint" />
          </mxGeometry>
        </mxCell>
        <mxCell id="Hv_uYBrX842Ujxgdl6rj-29" style="edgeStyle=orthogonalEdgeStyle;rounded=1;orthogonalLoop=1;jettySize=auto;html=1;curved=0;perimeterSpacing=5;enumerate=0;comic=1;orthogonal=1;" parent="1" source="Hv_uYBrX842Ujxgdl6rj-26" target="Hv_uYBrX842Ujxgdl6rj-11" edge="1">
          <mxGeometry relative="1" as="geometry">
            <mxPoint x="380" y="220" as="sourcePoint" />
            <mxPoint x="240" y="160" as="targetPoint" />
            <Array as="points">
              <mxPoint x="290" y="300" />
            </Array>
          </mxGeometry>
        </mxCell>
      </root>
    </mxGraphModel>
  </diagram>
  <diagram id="WZap7TaLVFp0E3q3ho6_" name="System">
    <mxGraphModel dx="794" dy="98" grid="1" gridSize="10" guides="0" tooltips="1" connect="0" arrows="0" fold="1" page="1" pageScale="1" pageWidth="850" pageHeight="1100" math="0" shadow="0">
      <root>
        <mxCell id="0" />
        <mxCell id="1" parent="0" />
        <object label="Система Ромашка" placeholders="1" tooltip="" team="" tasks="" id="B6jOhbCfChq7EX-tWoVm-1">
          <mxCell style="swimlane;strokeColor=#000000;rounded=0;strokeWidth=1;fontStyle=1;childLayout=stackLayout;horizontal=1;startSize=26;fillColor=default;horizontalStack=0;resizeParent=1;resizeParentMax=0;resizeLast=0;collapsible=0;marginBottom=0;whiteSpace=wrap;labelBackgroundColor=none;swimlaneFillColor=#FFFFFF;swimlaneLine=1;shadow=1;glass=0;allowArrows=1;fixDash=0;expand=1;movableLabel=0;rotatable=0;noLabel=0;snapToPoint=0;perimeter=rectanglePerimeter;metaEdit=0;resizeWidth=0;resizeHeight=0;cloneable=1;deletable=1;treeFolding=0;treeMoving=0;pointerEvents=0;enumerate=0;comic=0;movable=1;resizable=1;editable=1;locked=0;connectable=1;autosize=0;spacing=0;" vertex="1" parent="1">
            <mxGeometry x="80" y="1210" width="190" height="98" as="geometry">
              <mxRectangle x="1360" y="1390" width="90" height="30" as="alternateBounds" />
            </mxGeometry>
          </mxCell>
        </object>
        <UserObject label="Функция системы 1" tooltip="" team="" tasks="" placeholders="1" id="B6jOhbCfChq7EX-tWoVm-2">
          <mxCell style="text;strokeColor=none;fillColor=none;align=left;verticalAlign=middle;spacingLeft=0;spacingRight=0;overflow=hidden;rotatable=0;points=[[0,0.5],[1,0.5]];portConstraint=eastwest;whiteSpace=wrap;fontColor=#000000;noLabel=0;expand=1;enumerate=0;textShadow=0;labelPosition=center;verticalLabelPosition=middle;spacing=3;" vertex="1" parent="B6jOhbCfChq7EX-tWoVm-1">
            <mxGeometry y="26" width="190" height="24" as="geometry" />
          </mxCell>
        </UserObject>
        <UserObject label="Функция системы 2" tooltip="" team="" tasks="" placeholders="1" id="B6jOhbCfChq7EX-tWoVm-3">
          <mxCell style="text;strokeColor=none;fillColor=none;align=left;verticalAlign=middle;spacingLeft=0;spacingRight=0;overflow=hidden;rotatable=0;points=[[0,0.5],[1,0.5]];portConstraint=eastwest;whiteSpace=wrap;fontColor=#000000;noLabel=0;expand=1;enumerate=0;textShadow=0;labelPosition=center;verticalLabelPosition=middle;spacing=3;" vertex="1" parent="B6jOhbCfChq7EX-tWoVm-1">
            <mxGeometry y="50" width="190" height="24" as="geometry" />
          </mxCell>
        </UserObject>
        <UserObject label="Функция системы 3" tooltip="" team="" tasks="" placeholders="1" id="B6jOhbCfChq7EX-tWoVm-4">
          <mxCell style="text;strokeColor=none;fillColor=none;align=left;verticalAlign=middle;spacingLeft=0;spacingRight=0;overflow=hidden;rotatable=0;points=[[0,0.5],[1,0.5]];portConstraint=eastwest;whiteSpace=wrap;fontColor=#000000;noLabel=0;expand=1;enumerate=0;textShadow=0;labelPosition=center;verticalLabelPosition=middle;spacing=3;" vertex="1" parent="B6jOhbCfChq7EX-tWoVm-1">
            <mxGeometry y="74" width="190" height="24" as="geometry" />
          </mxCell>
        </UserObject>
        <mxCell id="B6jOhbCfChq7EX-tWoVm-5" value="" style="group" vertex="1" connectable="0" parent="1">
          <mxGeometry x="310" y="1190" width="220" height="70" as="geometry" />
        </mxCell>
        <object label="Внешний сервис" placeholders="1" tooltip="" team="" tasks="" id="B6jOhbCfChq7EX-tWoVm-6">
          <mxCell style="swimlane;strokeColor=#000000;rounded=0;strokeWidth=1;fontStyle=1;childLayout=stackLayout;horizontal=1;startSize=26;fillColor=#CCCCCC;horizontalStack=0;resizeParent=1;resizeParentMax=0;resizeLast=0;collapsible=0;marginBottom=0;whiteSpace=wrap;labelBackgroundColor=none;swimlaneFillColor=#FFFFFF;swimlaneLine=1;shadow=1;glass=0;allowArrows=1;fixDash=0;expand=1;movableLabel=0;rotatable=0;noLabel=0;snapToPoint=0;perimeter=rectanglePerimeter;metaEdit=0;resizeWidth=0;resizeHeight=0;cloneable=1;deletable=1;treeFolding=0;treeMoving=0;pointerEvents=0;enumerate=0;comic=0;movable=1;resizable=1;editable=1;locked=0;connectable=1;autosize=0;spacing=0;" vertex="1" parent="B6jOhbCfChq7EX-tWoVm-5">
            <mxGeometry x="30" y="20" width="170" height="98" as="geometry">
              <mxRectangle x="1360" y="1390" width="90" height="30" as="alternateBounds" />
            </mxGeometry>
          </mxCell>
        </object>
        <UserObject label="Функция сервиса 1" tooltip="" team="" tasks="" placeholders="1" id="B6jOhbCfChq7EX-tWoVm-7">
          <mxCell style="text;strokeColor=none;fillColor=none;align=left;verticalAlign=middle;spacingLeft=0;spacingRight=0;overflow=hidden;rotatable=0;points=[[0,0.5],[1,0.5]];portConstraint=eastwest;whiteSpace=wrap;fontColor=#000000;noLabel=0;expand=1;enumerate=0;textShadow=0;labelPosition=center;verticalLabelPosition=middle;spacing=3;" vertex="1" parent="B6jOhbCfChq7EX-tWoVm-6">
            <mxGeometry y="26" width="170" height="24" as="geometry" />
          </mxCell>
        </UserObject>
        <UserObject label="Функция сервиса 2" tooltip="" team="" tasks="" placeholders="1" id="B6jOhbCfChq7EX-tWoVm-8">
          <mxCell style="text;strokeColor=none;fillColor=none;align=left;verticalAlign=middle;spacingLeft=0;spacingRight=0;overflow=hidden;rotatable=0;points=[[0,0.5],[1,0.5]];portConstraint=eastwest;whiteSpace=wrap;fontColor=#000000;noLabel=0;expand=1;enumerate=0;textShadow=0;labelPosition=center;verticalLabelPosition=middle;spacing=3;" vertex="1" parent="B6jOhbCfChq7EX-tWoVm-6">
            <mxGeometry y="50" width="170" height="24" as="geometry" />
          </mxCell>
        </UserObject>
        <UserObject label="Функция сервиса 3" tooltip="" team="" tasks="" placeholders="1" id="B6jOhbCfChq7EX-tWoVm-9">
          <mxCell style="text;strokeColor=none;fillColor=none;align=left;verticalAlign=middle;spacingLeft=0;spacingRight=0;overflow=hidden;rotatable=0;points=[[0,0.5],[1,0.5]];portConstraint=eastwest;whiteSpace=wrap;fontColor=#000000;noLabel=0;expand=1;enumerate=0;textShadow=0;labelPosition=center;verticalLabelPosition=middle;spacing=3;" vertex="1" parent="B6jOhbCfChq7EX-tWoVm-6">
            <mxGeometry y="74" width="170" height="24" as="geometry" />
          </mxCell>
        </UserObject>
        <mxCell id="B6jOhbCfChq7EX-tWoVm-10" value="" style="ellipse;shape=cloud;whiteSpace=wrap;html=1;" vertex="1" parent="B6jOhbCfChq7EX-tWoVm-5">
          <mxGeometry x="3" y="11" width="60" height="30" as="geometry" />
        </mxCell>
      </root>
    </mxGraphModel>
  </diagram>
</mxfile>
